<svg width="22" height="22" fill="none" xmlns="http://www.w3.org/2000/svg"><g clip-path="url(#a)"><path d="M11 0C4.925 0 0 4.925 0 11s4.925 11 11 11 11-4.925 11-11S17.075 0 11 0Zm5.403 7.536-1.806 8.507c-.133.603-.492.75-.994.465l-2.75-2.026-1.325 1.278a.697.697 0 0 1-.55.27h-.005l.195-2.799 5.097-4.603c.22-.196-.05-.306-.342-.111l-6.296 3.965-2.714-.847c-.586-.186-.603-.586.124-.874L15.64 6.674c.493-.18.922.118.763.863v-.001Z" fill="#fff"/></g><defs><clipPath id="a"><path fill="#fff" d="M0 0h22v22H0z"/></clipPath></defs></svg>