<svg width="35" height="35" fill="none" xmlns="http://www.w3.org/2000/svg"><path d="M17.073 19.097c-.962 0-1.75-.788-1.75-1.75 0-.963.788-1.75 1.75-1.75.963 0 1.75.787 1.75 1.75 0 .962-.787 1.75-1.75 1.75Z" fill="#721BE3"/><path d="M17.5 25.156a7.656 7.656 0 1 0 0-15.312 7.656 7.656 0 0 0 0 15.312Zm0-12.578c2.68.033 4.856 2.275 4.856 4.977v.886c0 .973-.798 1.771-1.772 1.771a1.781 1.781 0 0 1-1.553-.918 2.787 2.787 0 0 1-1.968.82 2.782 2.782 0 0 1-2.779-2.778 2.782 2.782 0 0 1 2.778-2.778c.668 0 1.27.24 1.75.623v-.098c0-.285.252-.514.536-.514.285 0 .515.23.515.514v3.369a.733.733 0 0 0 1.465 0v-.886c0-2.155-1.728-3.927-3.839-3.96-1.05 0-2.045.394-2.789 1.127a3.862 3.862 0 0 0-1.16 2.767 3.902 3.902 0 0 0 3.894 3.894.514.514 0 0 1 0 1.028 4.93 4.93 0 0 1-4.922-4.922c0-1.323.515-2.57 1.466-3.5a4.837 4.837 0 0 1 3.522-1.422Z" fill="#721BE3"/><path d="M1.094 7.667c0-1.216.982-2.198 2.198-2.198H31.72c1.213 0 2.187.988 2.187 2.198v19.677a2.193 2.193 0 0 1-2.198 2.187H3.292a2.194 2.194 0 0 1-2.198-2.198V7.667Zm2.187-.005v.543l6.946 4.426a8.716 8.716 0 0 0-.987 1.965L3.281 10.8v14.007l6.147-3.916a8.737 8.737 0 0 0 1.094 1.895l-7.153 4.559h28.279l-7.172-4.565a8.736 8.736 0 0 0 1.094-1.897l6.149 3.914v-13.99l-5.963 3.796a8.723 8.723 0 0 0-.985-1.967l6.948-4.42V7.66l-.005-.004H3.287l-.004.002v.003H3.28Z" fill="#721BE3"/></svg>