<svg width="12" height="12" fill="none" xmlns="http://www.w3.org/2000/svg"><path d="M10.44 1.55A1.804 1.804 0 0 0 9.117 1H2.873c-.516 0-.957.183-1.324.55A1.803 1.803 0 0 0 1 2.873v6.244c0 .515.183.956.55 1.323a1.8 1.8 0 0 0 1.323.55H4.33c.095 0 .167-.004.215-.01a.252.252 0 0 0 .143-.085c.047-.05.071-.122.071-.217l-.004-.443a99.634 99.634 0 0 1-.002-.67l-.15.026a1.903 1.903 0 0 1-.361.023 2.778 2.778 0 0 1-.452-.046 1.013 1.013 0 0 1-.436-.194.826.826 0 0 1-.286-.4l-.065-.15a1.625 1.625 0 0 0-.205-.332.783.783 0 0 0-.283-.247l-.045-.032a.478.478 0 0 1-.085-.079.362.362 0 0 1-.058-.09c-.014-.031-.002-.056.032-.076a.416.416 0 0 1 .189-.029l.13.02a.94.94 0 0 1 .321.155c.13.088.237.204.316.339.1.178.22.313.361.407.141.093.283.14.426.14.143 0 .266-.011.371-.033.101-.02.2-.054.293-.098.038-.29.144-.514.318-.67a4.453 4.453 0 0 1-.666-.117 2.657 2.657 0 0 1-.612-.254 1.75 1.75 0 0 1-.523-.436 2.103 2.103 0 0 1-.342-.682 3.263 3.263 0 0 1-.133-.976c0-.524.171-.971.514-1.34-.16-.394-.146-.837.045-1.326.126-.04.313-.01.56.087.246.098.427.182.542.25.115.07.207.129.277.177a4.62 4.62 0 0 1 1.248-.17c.43 0 .846.057 1.25.17l.247-.156c.19-.115.39-.21.598-.287.23-.086.405-.11.527-.071.195.49.212.932.052 1.326.342.369.514.816.514 1.34 0 .369-.045.696-.134.979a2.007 2.007 0 0 1-.345.683 1.825 1.825 0 0 1-.526.433 2.65 2.65 0 0 1-.611.253 4.45 4.45 0 0 1-.667.117c.225.196.338.503.338.924v1.555c0 .073.01.132.032.178a.18.18 0 0 0 .104.095c.048.016.09.027.127.031.037.006.09.007.16.007h1.457c.515 0 .956-.183 1.323-.55.366-.366.55-.807.55-1.323V2.873c0-.516-.184-.957-.55-1.324Z" fill="#fff"/></svg>