<svg width="60" height="60" fill="none" xmlns="http://www.w3.org/2000/svg"><path d="M47.143 12.857H27.857a4.286 4.286 0 0 0-4.285 4.286v19.285a4.286 4.286 0 0 0 4.285 4.286h19.286a4.286 4.286 0 0 0 4.286-4.285V17.142a4.286 4.286 0 0 0-4.286-4.286Zm-30 38.571h32.614a4.286 4.286 0 0 1 3 1.243l5.1 5.186M17.143 51.43a9.032 9.032 0 0 0 0-1.072 7.457 7.457 0 1 0 0 1.072Zm-15-49.286h4.286a4.286 4.286 0 0 1 4.285 4.286v36.428M36.43 30h4.285" stroke="#D6BD96" stroke-width="4.286" stroke-linecap="round" stroke-linejoin="round"/></svg>