<svg width="50" height="50" viewBox="0 0 50 50" fill="none" xmlns="http://www.w3.org/2000/svg">
<path d="M43.75 2.5H6.25C4.17893 2.5 2.5 4.17893 2.5 6.25V43.75C2.5 45.8211 4.17893 47.5 6.25 47.5H43.75C45.8211 47.5 47.5 45.8211 47.5 43.75V6.25C47.5 4.17893 45.8211 2.5 43.75 2.5Z" stroke="#D6BD96" stroke-width="5" stroke-linecap="round" stroke-linejoin="round"/>
<path d="M21.25 16.25H11.25V33.75H20.625M11.25 25H20.625M27.5 18.75V33.75V25.625C27.5 24.1332 28.0926 22.7024 29.1475 21.6475C30.2024 20.5926 31.6332 20 33.125 20C34.6168 20 36.0476 20.5926 37.1025 21.6475C38.1574 22.7024 38.75 24.1332 38.75 25.625V33.75" stroke="#D6BD96" stroke-width="5" stroke-linecap="round" stroke-linejoin="round"/>
</svg>
