<svg width="16" height="16" fill="none" xmlns="http://www.w3.org/2000/svg"><path d="M16 0H0v16h16V0Z" fill="#A30BDE" style="fill:color(display-p3 .6392 .0431 .8706);fill-opacity:1"/><g clip-path="url(#a)" fill="#fff"><path d="M8.152 8.55c-1.312 1.317-1.15 2.636-.554 3.63-1.368-.584-2.631-2.897-.881-4.997C8.583 5.317 8.233 4.5 8.233 3.8c.584 1.05 1.495 3.169-.081 4.75Z" style="fill:#fff;fill-opacity:1"/><path d="M7.882 12.2c-.279-.605-.57-2.068.276-2.917 1.523-1.57 1.278-2.946 1.245-3.029L9.4 6.25l.003.004c.062.099 1.257 2.037.378 4.196.507-.293.723-.693.786-.817-.263 2.13-1.606 2.48-2.685 2.567Zm-.465-6.183c-.7.427-2.283 1.516-2.376 2.916-.093 1.4.7 1.984 1.167 2.45a4.349 4.349 0 0 1-.7-2.333c0-1.12 1.286-2.528 1.909-3.033Z" style="fill:#fff;fill-opacity:1"/></g><defs><clipPath id="a"><path fill="#fff" style="fill:#fff;fill-opacity:1" transform="translate(2.4 2.4)" d="M0 0h11.2v11.2H0z"/></clipPath></defs></svg>