<svg width="88" height="636" fill="none" xmlns="http://www.w3.org/2000/svg"><g opacity=".202" fill="#D6BD96" fill-opacity=".54"><path d="M44.45 599.95H73v9.7H44.45L1.35 635.9v-8.5c0-.867.217-1.55.65-2.05.4-.5.933-.933 1.6-1.3l27.85-16.4c1.167-.6 2.267-1.15 3.3-1.65 1-.5 2.017-.933 3.05-1.3a34.46 34.46 0 0 1-3.05-1.25 130.95 130.95 0 0 1-3.3-1.55L3.6 585.55a5.456 5.456 0 0 1-1.55-1.25c-.467-.533-.7-1.217-.7-2.05v-8.55l43.1 26.25Z"/><path d="m65.1 533.807 7.9.05v44.15H1.35v-44.15h7.9v34.45h23.8v-27.9h7.6v27.9H65.1v-34.5Z"/><path d="m1.35 475.601 71.65 29.2v8.7l-71.65 29.2v-7.75c0-.866.217-1.566.65-2.1a4.003 4.003 0 0 1 1.65-1.2l50.55-20.2a53.317 53.317 0 0 1 3.7-1.25 48.365 48.365 0 0 1 4.2-1.15 95.587 95.587 0 0 1-4.2-1.05 39.886 39.886 0 0 1-3.7-1.2l-50.55-20.15c-.567-.2-1.083-.583-1.55-1.15-.5-.6-.75-1.316-.75-2.15v-7.75Zm79.9-29.366h6v39.4h-6v-39.4Zm-68.7-35.489c.5.3.883.633 1.15 1 .233.333.35.75.35 1.25 0 .567-.283 1.233-.85 2-.567.767-1.183 1.733-1.85 2.9-.7 1.133-1.333 2.517-1.9 4.15-.567 1.6-.85 3.55-.85 5.85 0 2.167.3 4.083.9 5.75.567 1.633 1.35 3.017 2.35 4.15 1 1.1 2.183 1.933 3.55 2.5 1.333.567 2.783.85 4.35.85 2 0 3.667-.483 5-1.45 1.3-1 2.417-2.3 3.35-3.9.933-1.633 1.75-3.467 2.45-5.5a347.402 347.402 0 0 1 2.1-6.3 65.116 65.116 0 0 1 2.5-6.3c.9-2.067 2.05-3.9 3.45-5.5 1.4-1.633 3.117-2.933 5.15-3.9 2.033-1 4.533-1.5 7.5-1.5 3.133 0 6.083.533 8.85 1.6a20.23 20.23 0 0 1 7.15 4.7c2.033 2.033 3.633 4.55 4.8 7.55 1.167 2.967 1.75 6.35 1.75 10.15 0 4.667-.833 8.9-2.5 12.7-1.7 3.8-3.983 7.05-6.85 9.75l-4.6-2.8a3.477 3.477 0 0 1-.9-.95c-.267-.4-.4-.833-.4-1.3 0-.433.183-.917.55-1.45.333-.567.767-1.2 1.3-1.9s1.117-1.5 1.75-2.4c.633-.9 1.217-1.917 1.75-3.05.533-1.167.983-2.483 1.35-3.95.333-1.467.5-3.117.5-4.95 0-2.3-.317-4.35-.95-6.15-.633-1.8-1.517-3.317-2.65-4.55a11.685 11.685 0 0 0-4.15-2.9c-1.6-.667-3.383-1-5.35-1-2.167 0-3.933.5-5.3 1.5-1.4.967-2.567 2.25-3.5 3.85-.933 1.6-1.717 3.433-2.35 5.5a729.219 729.219 0 0 0-2 6.3c-.7 2.133-1.5 4.233-2.4 6.3-.9 2.067-2.067 3.9-3.5 5.5-1.433 1.6-3.217 2.9-5.35 3.9-2.167.967-4.833 1.45-8 1.45-2.533 0-4.983-.483-7.35-1.45a19.264 19.264 0 0 1-6.3-4.3c-1.833-1.9-3.3-4.217-4.4-6.95-1.1-2.767-1.65-5.933-1.65-9.5 0-4 .633-7.633 1.9-10.9 1.267-3.3 3.1-6.2 5.5-8.7l4.6 2.35Zm20.2-13.738v-3.65c0-1.266-.15-2.283-.45-3.05-.333-.766-.883-1.466-1.65-2.1l-27-23.85c-.867-.666-1.467-1.366-1.8-2.1-.333-.733-.5-1.633-.5-2.7v-8.2l30.85 27.3c.8.667 1.467 1.317 2 1.95.5.6.917 1.25 1.25 1.95.3-.9.75-1.716 1.35-2.45.567-.733 1.317-1.45 2.25-2.15l33.95-28.5v8.4c0 .634-.033 1.184-.1 1.65a5.13 5.13 0 0 1-.4 1.15 6.18 6.18 0 0 1-.65.9c-.267.234-.567.467-.9.7l-28.45 24.7c-.833.667-1.417 1.384-1.75 2.15-.367.767-.55 1.934-.55 3.5v4.4H73v9.65H1.35v-9.65h31.4Z"/><path d="m46.4 315.957-29.15 11.25c-.867.333-1.867.683-3 1.05-1.167.366-2.4.716-3.7 1.05 2.7.7 4.95 1.416 6.75 2.15l29.1 11.25v-26.75Zm26.6-20.2v7.5c0 .866-.217 1.566-.65 2.1a4.003 4.003 0 0 1-1.65 1.2l-17.3 6.7v32.15l17.3 6.7c.6.2 1.133.583 1.6 1.15.467.566.7 1.266.7 2.1v7.5l-71.65-28.65v-9.8L73 295.757Z"/><path d="M36.05 280.04c0-2.8-.333-5.266-1-7.4-.7-2.166-1.667-3.966-2.9-5.4-1.267-1.466-2.767-2.566-4.5-3.3-1.733-.733-3.65-1.1-5.75-1.1-4.267 0-7.483 1.4-9.65 4.2-2.167 2.8-3.25 7-3.25 12.6v10.6h27.05v-10.2ZM73 246.94v8.6c0 1.767-.683 3.067-2.05 3.9l-25.6 18.6c-.8.567-1.367 1.184-1.7 1.85-.367.634-.55 1.634-.55 3v7.35H73v9.65H1.35v-20.25c0-4.533.467-8.45 1.4-11.75.9-3.3 2.217-6.016 3.95-8.15 1.733-2.166 3.833-3.766 6.3-4.8 2.433-1.033 5.167-1.55 8.2-1.55 2.533 0 4.9.4 7.1 1.2 2.2.8 4.183 1.967 5.95 3.5 1.733 1.5 3.217 3.35 4.45 5.55 1.233 2.167 2.167 4.634 2.8 7.4.7-1.233 1.717-2.3 3.05-3.2L73 246.94Z"/><path d="m65.1 206.554 7.9.05v44.15H1.35v-44.15h7.9v34.45h23.8v-27.9h7.6v27.9H65.1v-34.5Z"/><path d="M9.5 158.149v23.2H73v9.65H9.5v23.25H1.35v-56.1H9.5Z"/><path d="M12.55 124.719c.5.3.883.633 1.15 1 .233.333.35.75.35 1.25 0 .567-.283 1.233-.85 2-.567.767-1.183 1.733-1.85 2.9-.7 1.133-1.333 2.517-1.9 4.15-.567 1.6-.85 3.55-.85 5.85 0 2.167.3 4.083.9 5.75.567 1.633 1.35 3.017 2.35 4.15 1 1.1 2.183 1.933 3.55 2.5 1.333.567 2.783.85 4.35.85 2 0 3.667-.483 5-1.45 1.3-1 2.417-2.3 3.35-3.9.933-1.633 1.75-3.467 2.45-5.5a347.402 347.402 0 0 1 2.1-6.3 65.116 65.116 0 0 1 2.5-6.3c.9-2.067 2.05-3.9 3.45-5.5 1.4-1.633 3.117-2.933 5.15-3.9 2.033-1 4.533-1.5 7.5-1.5 3.133 0 6.083.533 8.85 1.6a20.23 20.23 0 0 1 7.15 4.7c2.033 2.033 3.633 4.55 4.8 7.55 1.167 2.967 1.75 6.35 1.75 10.15 0 4.667-.833 8.9-2.5 12.7-1.7 3.8-3.983 7.05-6.85 9.75l-4.6-2.8a3.477 3.477 0 0 1-.9-.95c-.267-.4-.4-.833-.4-1.3 0-.433.183-.917.55-1.45.333-.567.767-1.2 1.3-1.9s1.117-1.5 1.75-2.4c.633-.9 1.217-1.917 1.75-3.05.533-1.167.983-2.483 1.35-3.95.333-1.467.5-3.117.5-4.95 0-2.3-.317-4.35-.95-6.15-.633-1.8-1.517-3.317-2.65-4.55a11.685 11.685 0 0 0-4.15-2.9c-1.6-.667-3.383-1-5.35-1-2.167 0-3.933.5-5.3 1.5-1.4.967-2.567 2.25-3.5 3.85-.933 1.6-1.717 3.433-2.35 5.5a729.219 729.219 0 0 0-2 6.3c-.7 2.133-1.5 4.233-2.4 6.3-.9 2.067-2.067 3.9-3.5 5.5-1.433 1.6-3.217 2.9-5.35 3.9-2.167.967-4.833 1.45-8 1.45-2.533 0-4.983-.483-7.35-1.45a19.264 19.264 0 0 1-6.3-4.3c-1.833-1.9-3.3-4.217-4.4-6.95-1.1-2.767-1.65-5.933-1.65-9.5 0-4 .633-7.633 1.9-10.9 1.267-3.3 3.1-6.2 5.5-8.7l4.6 2.35Zm20.2-13.738v-3.65c0-1.266-.15-2.283-.45-3.05-.333-.766-.883-1.466-1.65-2.1l-27-23.85c-.867-.666-1.467-1.366-1.8-2.1-.333-.733-.5-1.633-.5-2.7v-8.2l30.85 27.3c.8.667 1.467 1.317 2 1.95.5.6.917 1.25 1.25 1.95.3-.9.75-1.716 1.35-2.45.567-.733 1.317-1.45 2.25-2.15L73 63.431v8.4c0 .634-.033 1.184-.1 1.65a5.13 5.13 0 0 1-.4 1.15 6.18 6.18 0 0 1-.65.9c-.267.234-.567.467-.9.7l-28.45 24.7c-.833.667-1.417 1.384-1.75 2.15-.367.767-.55 1.934-.55 3.5v4.4H73v9.65H1.35v-9.65h31.4Z"/><path d="M73 58.28v9.7H1.35v-9.7H73Z"/><path d="M44.45 26.612H73v9.7H44.45l-43.1 26.25v-8.5c0-.867.217-1.55.65-2.05.4-.5.933-.934 1.6-1.3l27.85-16.4c1.167-.6 2.267-1.15 3.3-1.65 1-.5 2.017-.933 3.05-1.3a34.43 34.43 0 0 1-3.05-1.25 130.95 130.95 0 0 1-3.3-1.55L3.6 12.212a5.45 5.45 0 0 1-1.55-1.25c-.467-.534-.7-1.217-.7-2.05V.362l43.1 26.25Z"/></g></svg>