<svg xmlns="http://www.w3.org/2000/svg" width="50" height="50" xml:space="preserve"><rect width="100%" height="100%" fill="#333"/><path style="stroke:none;stroke-width:0;stroke-dasharray:none;stroke-linecap:butt;stroke-dashoffset:0;stroke-linejoin:miter;stroke-miterlimit:4;is-custom-font:none;font-file-url:none;fill:#fffdfd;fill-rule:nonzero;opacity:1" vector-effect="non-scaling-stroke" transform="matrix(.097 0 0 .097 .333 .333)" d="M320 0c-17.7 0-32 14.3-32 32s14.3 32 32 32h82.7L201.4 265.4c-12.5 12.5-12.5 32.8 0 45.3s32.8 12.5 45.3 0L448 109.3V192c0 17.7 14.3 32 32 32s32-14.3 32-32V32c0-17.7-14.3-32-32-32H320zM80 32C35.8 32 0 67.8 0 112v320c0 44.2 35.8 80 80 80h320c44.2 0 80-35.8 80-80V320c0-17.7-14.3-32-32-32s-32 14.3-32 32v112c0 8.8-7.2 16-16 16H80c-8.8 0-16-7.2-16-16V112c0-8.8 7.2-16 16-16h112c17.7 0 32-14.3 32-32s-14.3-32-32-32H80z"/></svg>