<svg xmlns="http://www.w3.org/2000/svg" xmlns:xlink="http://www.w3.org/1999/xlink" version="1.1" width="50" height="50" viewBox="0 0 50 50" xml:space="preserve">
<desc>Created with Fabric.js 3.5.0</desc>
<defs>
</defs>
<rect x="0" y="0" width="100%" height="100%" fill="#333333"/>
<g transform="matrix(0.097 0 0 0.097 25.1653 25.1653)" id="858292">
<path style="stroke: none; stroke-width: 0; stroke-dasharray: none; stroke-linecap: butt; stroke-dashoffset: 0; stroke-linejoin: miter; stroke-miterlimit: 4; is-custom-font: none; font-file-url: none; fill: rgb(255,253,253); fill-rule: nonzero; opacity: 1;" vector-effect="non-scaling-stroke" transform=" translate(-256, -256)" d="M 320 0 c -17.7 0 -32 14.3 -32 32 s 14.3 32 32 32 h 82.7 L 201.4 265.4 c -12.5 12.5 -12.5 32.8 0 45.3 s 32.8 12.5 45.3 0 L 448 109.3 V 192 c 0 17.7 14.3 32 32 32 s 32 -14.3 32 -32 V 32 c 0 -17.7 -14.3 -32 -32 -32 H 320 z M 80 32 C 35.8 32 0 67.8 0 112 V 432 c 0 44.2 35.8 80 80 80 H 400 c 44.2 0 80 -35.8 80 -80 V 320 c 0 -17.7 -14.3 -32 -32 -32 s -32 14.3 -32 32 V 432 c 0 8.8 -7.2 16 -16 16 H 80 c -8.8 0 -16 -7.2 -16 -16 V 112 c 0 -8.8 7.2 -16 16 -16 H 192 c 17.7 0 32 -14.3 32 -32 s -14.3 -32 -32 -32 H 80 z" stroke-linecap="round"/>
</g>
</svg>