<svg width="23" height="21" fill="none" xmlns="http://www.w3.org/2000/svg"><path fill-rule="evenodd" clip-rule="evenodd" d="M20.242 0H1.88C.877 0 0 .673 0 1.596v17.141c0 .93.877 1.757 1.88 1.757h18.357a1.769 1.769 0 0 0 1.765-1.757V1.597C22.008.672 21.245 0 20.242 0ZM6.82 17.082H3.668V7.954H6.82v9.128ZM5.353 6.566H5.33c-1.009 0-1.662-.7-1.662-1.575 0-.891.67-1.575 1.702-1.575s1.662.678 1.685 1.575c0 .876-.653 1.575-1.702 1.575ZM18.34 17.082h-3.152v-4.99c0-1.197-.459-2.013-1.6-2.013-.87 0-1.386.55-1.616 1.083-.086.192-.108.454-.108.721v5.2H8.71v-9.13h3.152v1.27c.459-.608 1.175-1.484 2.843-1.484 2.07 0 3.634 1.271 3.634 4.01v5.332Z" fill="#fff"/></svg>