<svg width="23" height="21" fill="none" xmlns="http://www.w3.org/2000/svg"><ellipse cx="11.001" cy="10.557" rx="4.667" ry="4.347" fill="#fff"/><path fill-rule="evenodd" clip-rule="evenodd" d="M6.837 6.009c1.209-1.126 2.816-1.753 4.526-1.753s3.317.63 4.526 1.756a5.804 5.804 0 0 1 1.613 2.531h4.805V2.528c0-1.41-1.171-2.501-2.686-2.501H3.162c-1.515 0-2.8 1.09-2.8 2.501v6.015h4.862A5.816 5.816 0 0 1 6.837 6.01Zm13.641-1.554c0 .377-.327.682-.732.682h-2.194c-.404 0-.732-.305-.732-.682V2.411c0-.376.328-.681.732-.681h2.195c.404 0 .731.305.731.681v2.044Zm-4.589 9.985c-1.21 1.126-2.816 1.74-4.526 1.74s-3.317-.61-4.526-1.736C5.63 13.32 4.965 11.79 4.962 10.247h-4.6v7.612c0 1.41 1.285 2.608 2.8 2.608h16.459c1.515 0 2.686-1.197 2.686-2.608v-7.612h-4.544c-.002 1.543-.668 3.07-1.874 4.193Z" fill="#fff"/></svg>