<svg width="33" height="33" fill="none" xmlns="http://www.w3.org/2000/svg"><g clip-path="url(#a)"><path d="m22.296 11.95 9.232-2.309A16.5 16.5 0 0 1 33 16.463C33 25.533 25.534 33 16.458 33c-.42 0-.833-.017-1.247-.048l6.741-11.48a6.954 6.954 0 0 0 1.214-1.744 7.498 7.498 0 0 0-.059-6.526 7.17 7.17 0 0 0-.811-1.253v.001Zm-4.459 11.79-2.916 9.184C6.514 32.098 0 24.943 0 16.468c0-3.276.978-6.483 2.804-9.212l6.644 11.521c.248.741 1.542 3.55 4.217 4.576 1.375.52 2.807.66 4.172.387Zm-1.374-13.26c-2.756.027-5.334 2.12-5.888 4.829a6.164 6.164 0 0 0 1.704 5.543c1.67 1.633 4.318 2.17 6.51 1.273 1.933-.788 3.394-2.648 3.7-4.715.37-2.55-1.085-5.27-3.433-6.365a6.088 6.088 0 0 0-2.593-.566ZM9.69 13.696l-6.585-6.87A16.56 16.56 0 0 1 16.495 0a16.562 16.562 0 0 1 14.814 9.18h-14.04c-2.493-.173-4.523.713-5.866 1.997a7.277 7.277 0 0 0-1.713 2.519Z" fill="#D6BD96"/></g><defs><clipPath id="a"><path fill="#fff" d="M0 0h33v33H0z"/></clipPath></defs></svg>