<svg width="33" height="33" viewBox="0 0 33 33" fill="none" xmlns="http://www.w3.org/2000/svg">
<g clip-path="url(#clip0_2040_192)">
<path d="M15.9101 15.8304H0C0.000539039 16.7739 0.187156 17.708 0.549166 18.5792C0.911177 19.4505 1.44147 20.2418 2.1097 20.9078C2.77792 21.5739 3.57095 22.1016 4.44338 22.4608C5.31582 22.82 6.25053 23.0035 7.194 23.001H10.1227V25.8294C10.1227 27.7307 10.8778 29.5541 12.222 30.8988C13.5662 32.2435 15.3893 32.9993 17.2906 33V17.2122C17.2906 16.8458 17.145 16.4943 16.8859 16.2351C16.6267 15.976 16.2752 15.8304 15.9087 15.8304H15.9101ZM23.7793 7.91587H7.887C7.88736 9.8174 8.643 11.6409 9.98771 12.9854C11.3324 14.3298 13.1561 15.0851 15.0576 15.0851H17.985V17.9149C17.9865 19.8161 18.7424 21.639 20.0869 22.9832C21.4314 24.3274 23.2544 25.083 25.1556 25.0841V9.29225C25.1556 8.92721 25.0106 8.57713 24.7525 8.31901C24.4944 8.06089 24.1443 7.91587 23.7793 7.91587ZM31.6429 0H15.7506C15.7506 1.90177 16.5061 3.72564 17.8509 5.0704C19.1956 6.41515 21.0195 7.17063 22.9213 7.17063H25.8486V9.999C25.8501 11.8965 26.6035 13.716 27.944 15.0591C29.2844 16.4021 31.1025 17.159 33 17.1641V1.38187C33.0015 1.0192 32.8598 0.670591 32.6056 0.41183C32.3515 0.153069 32.0055 0.00506942 31.6429 0Z" fill="#D6BD96"/>
</g>
<defs>
<clipPath id="clip0_2040_192">
<rect width="33" height="33" fill="white"/>
</clipPath>
</defs>
</svg>
