<svg width="33" height="33" fill="none" xmlns="http://www.w3.org/2000/svg"><path d="M8.25 4.125A4.125 4.125 0 0 0 4.125 8.25v16.5a4.125 4.125 0 0 0 4.125 4.125h16.5a4.125 4.125 0 0 0 4.125-4.125V8.25a4.125 4.125 0 0 0-4.125-4.125H8.25Zm10.084 17.95c.99.798 1.977 1.19 2.965 1.18.605 0 1.07-.11 1.391-.332a1.031 1.031 0 0 0 .47-.908 1.334 1.334 0 0 0-.468-1.028c-.323-.282-.934-.564-1.832-.847-1.078-.313-1.911-.715-2.495-1.21-.575-.495-.867-1.186-.878-2.072 0-.838.363-1.538 1.09-2.103.706-.564 1.608-.847 2.708-.847 1.532 0 2.762.373 3.69 1.12l-1.06 1.648a3.571 3.571 0 0 0-1.285-.635 4.416 4.416 0 0 0-1.301-.227c-.523 0-.942.096-1.255.287-.313.193-.468.444-.468.757 0 .343.191.635.573.877.386.232 1.04.49 1.967.771 1.119.333 1.916.777 2.39 1.331.474.554.71 1.261.71 2.118 0 .877-.336 1.633-1.013 2.268-.666.626-1.634.953-2.904.983-1.664 0-3.055-.499-4.175-1.497l1.18-1.633Zm-7.604.878c.324.202.711.302 1.165.302.475 0 .866-.136 1.18-.408.312-.282.469-.771.469-1.467v-7.29h2.042v7.683c-.03 1.19-.373 2.047-1.029 2.571a3.39 3.39 0 0 1-1.225.666 4.52 4.52 0 0 1-1.286.196c-.756 0-1.427-.13-2.011-.393-.626-.282-1.15-.78-1.573-1.497l1.421-1.165c.262.354.545.62.848.802Z" fill="#D6BD96"/></svg>