<svg width="33" height="33" fill="none" xmlns="http://www.w3.org/2000/svg"><path d="M8.74 12.375c-3.625.935-5.99 2.537-5.99 4.366C2.75 19.638 8.807 22 16.294 22c1.017 0 1.732-.054 2.681-.133" stroke="#D6BD96" stroke-width="2.75" stroke-linecap="round" stroke-linejoin="round"/><path d="M13.526 21.862c-.568-.82-1.108-1.557-1.623-2.475-3.782-6.737-4.796-13.433-2.24-14.95 1.58-.958 4.189.348 6.838 3.1" stroke="#D6BD96" stroke-width="2.75" stroke-linecap="round" stroke-linejoin="round"/><path d="M8.84 21.157c-.965 3.696-.77 6.485.77 7.418 2.452 1.485 7.407-2.692 11.059-9.355A38.23 38.23 0 0 0 22 16.5" stroke="#D6BD96" stroke-width="2.75" stroke-linecap="round" stroke-linejoin="round"/><path d="M16.5 25.465c2.651 2.75 5.248 4.056 6.845 3.098 2.544-1.515 1.541-8.212-2.246-14.95-.528-.931-1.068-1.656-1.622-2.476" stroke="#D6BD96" stroke-width="2.75" stroke-linecap="round" stroke-linejoin="round"/><path d="M24.282 20.625c3.592-.945 5.968-2.544 5.968-4.367 0-2.901-6.061-5.258-13.537-5.258-1.027 0-1.74.04-2.688.12" stroke="#D6BD96" stroke-width="2.75" stroke-linecap="round" stroke-linejoin="round"/><path d="M11 16.5a34.8 34.8 0 0 1 1.331-2.72c3.64-6.66 8.598-10.849 11.063-9.351 1.527.933 1.736 3.72.77 7.415m-7.306 4.676h-.014a.36.36 0 0 1-.358.33.362.362 0 0 1-.344-.357c0-.192.152-.344.33-.344h-.013c.178-.014.343.151.343.33" stroke="#D6BD96" stroke-width="2.75" stroke-linecap="round" stroke-linejoin="round"/></svg>