<svg width="33" height="33" fill="none" xmlns="http://www.w3.org/2000/svg"><path d="M19.566 16.506a3.074 3.074 0 1 1-6.148 0 3.074 3.074 0 0 1 6.148 0Zm3.641-14.7c-1.85 0-4.272 1.32-6.72 3.606-2.448-2.273-4.871-3.578-6.72-3.578a3.02 3.02 0 0 0-1.521.382c-1.89 1.09-2.314 4.488-1.338 8.752C2.722 12.261 0 14.328 0 16.506c0 2.186 2.736 4.258 6.934 5.54-.968 4.281-.536 7.684 1.359 8.773.44.257.948.378 1.515.378 1.85 0 4.272-1.32 6.72-3.608 2.448 2.275 4.871 3.58 6.72 3.58.564 0 1.077-.124 1.521-.379 1.89-1.089 2.314-4.486 1.338-8.752 4.17-1.28 6.893-3.352 6.893-5.532 0-2.187-2.736-4.259-6.934-5.545.968-4.276.536-7.682-1.359-8.772a2.975 2.975 0 0 0-1.5-.382Zm-.007 1.5v.008c.31 0 .559.06.768.174.915.526 1.313 2.523 1.003 5.093-.074.633-.195 1.3-.343 1.98a32.28 32.28 0 0 0-4.273-.734 32.86 32.86 0 0 0-2.798-3.365c2.19-2.035 4.245-3.151 5.645-3.155l-.002-.002Zm-13.433.027c1.391 0 3.456 1.111 5.65 3.135a31.604 31.604 0 0 0-2.777 3.358 31.248 31.248 0 0 0-4.28.74 20.655 20.655 0 0 1-.35-1.953c-.316-2.569.075-4.565.982-5.097.262-.124.55-.176.775-.183Zm6.712 4.194a27.353 27.353 0 0 1 1.87 2.15A40.73 40.73 0 0 0 16.5 9.63c-.633 0-1.258.014-1.87.047a26.085 26.085 0 0 1 1.85-2.15Zm.021 3.61c1.017 0 2.03.047 3.028.128a35.895 35.895 0 0 1 3.026 5.234c-.423.9-.888 1.8-1.393 2.68a34.768 34.768 0 0 1-1.622 2.572 35.256 35.256 0 0 1-6.067.007 36.616 36.616 0 0 1-1.626-2.557 34.49 34.49 0 0 1-1.4-2.676c.425-.916.89-1.812 1.393-2.687a34.703 34.703 0 0 1 1.622-2.568c1.01-.09 2.025-.135 3.039-.135v.002Zm-4.998.35c-.33.518-.66 1.049-.968 1.595-.31.536-.598 1.075-.873 1.614a28.483 28.483 0 0 1-.93-2.677c.88-.206 1.808-.39 2.77-.532Zm9.982 0c.956.141 1.877.316 2.759.532a29.475 29.475 0 0 1-.908 2.658 35.677 35.677 0 0 0-1.85-3.19Zm4.212.928c.665.206 1.298.436 1.89.685 2.382 1.017 3.922 2.348 3.922 3.404-.007 1.056-1.547 2.393-3.928 3.403-.578.248-1.21.47-1.863.678a32.942 32.942 0 0 0-1.513-4.097 32.001 32.001 0 0 0 1.492-4.076v.003Zm-18.418.005a32.08 32.08 0 0 0 1.512 4.098 31.816 31.816 0 0 0-1.493 4.075 19.548 19.548 0 0 1-1.884-.687c-2.381-1.014-3.921-2.346-3.921-3.402s1.54-2.395 3.921-3.404a21.16 21.16 0 0 1 1.865-.68Zm16.057 5.885c.364.904.674 1.804.93 2.679-.88.216-1.81.399-2.772.536a35.474 35.474 0 0 0 1.842-3.215Zm-13.674.028c.275.539.564 1.077.88 1.616.316.536.64 1.061.97 1.571a30.259 30.259 0 0 1-2.76-.53c.248-.867.56-1.763.908-2.659l.002.002ZM24.64 22.44c.154.678.275 1.331.35 1.957.316 2.568-.075 4.565-.982 5.098-.203.124-.465.176-.775.176-1.391 0-3.456-1.11-5.65-3.135a31.702 31.702 0 0 0 2.777-3.355 31.45 31.45 0 0 0 4.28-.741Zm-16.266.014c1.32.322 2.758.57 4.272.731a32.683 32.683 0 0 0 2.798 3.364c-2.193 2.039-4.252 3.155-5.651 3.155a1.63 1.63 0 0 1-.76-.181C8.116 29 7.718 27 8.028 24.43c.074-.633.196-1.298.345-1.977Zm6.27.88c.605.027 1.223.047 1.85.047.632 0 1.257-.014 1.87-.047a26.354 26.354 0 0 1-1.85 2.152 27.861 27.861 0 0 1-1.87-2.152Z" fill="#D6BD96"/></svg>