<svg width="33" height="33" fill="none" xmlns="http://www.w3.org/2000/svg"><g clip-path="url(#a)"><mask id="b" style="mask-type:luminance" maskUnits="userSpaceOnUse" x="0" y="0" width="33" height="33"><path d="M0 0h33v33H0V0Z" fill="#fff"/></mask><g mask="url(#b)"><path d="M32.215 0H.784A.785.785 0 0 0 0 .785v31.431a.783.783 0 0 0 .785.785h31.431a.784.784 0 0 0 .785-.785V.784A.786.786 0 0 0 32.215 0ZM19.643 17.636h-3.928v12.22h-3.143v-12.22H8.643v-2.708h11v2.708Zm.88 11.522v-3.265s1.785 1.344 3.926 1.344c2.14 0 2.058-1.4 2.058-1.592 0-2.03-6.066-2.03-6.066-6.532 0-6.122 8.84-3.706 8.84-3.706l-.11 2.91s-1.483-.99-3.157-.99c-1.675 0-2.279.798-2.279 1.648 0 2.196 6.122 1.977 6.122 6.396 0 6.807-9.334 3.789-9.334 3.789v-.002Z" fill="#D6BD96"/></g></g><defs><clipPath id="a"><path fill="#fff" d="M0 0h33v33H0z"/></clipPath></defs></svg>