<svg width="33" height="33" fill="none" xmlns="http://www.w3.org/2000/svg"><g clip-path="url(#a)"><path d="M15.91 15.83H0a7.174 7.174 0 0 0 7.194 7.171h2.929v2.828A7.17 7.17 0 0 0 17.29 33V17.212a1.382 1.382 0 0 0-1.382-1.382h.001Zm7.87-7.914H7.886a7.17 7.17 0 0 0 7.17 7.17h2.928v2.829a7.175 7.175 0 0 0 7.17 7.17V9.291a1.376 1.376 0 0 0-1.376-1.376ZM31.642 0H15.75a7.17 7.17 0 0 0 7.17 7.17h2.928V10A7.17 7.17 0 0 0 33 17.164V1.382A1.376 1.376 0 0 0 31.643 0Z" fill="#D6BD96"/></g><defs><clipPath id="a"><path fill="#fff" d="M0 0h33v33H0z"/></clipPath></defs></svg>