<svg width="35" height="35" fill="none" xmlns="http://www.w3.org/2000/svg"><g clip-path="url(#a)"><path d="M25.976 32.818c-.13.069-.12.09.005.027a.338.338 0 0 0 .104-.066c0-.024 0-.024-.11.039Zm.262-.142c-.062.051-.062.051.012.017a.275.275 0 0 0 .074-.051c0-.03-.017-.023-.086.034Zm.17-.103c-.062.051-.062.051.013.017a.27.27 0 0 0 .074-.052c0-.027-.018-.022-.086.035Zm.173-.102c-.062.052-.062.052.01.017.04-.022.075-.045.075-.052 0-.027-.018-.022-.085.035Zm.233-.154c-.119.08-.16.131-.051.074.073-.044.198-.143.176-.143-.047.018-.086.047-.126.069h.001ZM16.354.012c-.079.005-.319.027-.528.045-4.975.45-9.629 3.128-12.579 7.252A17.312 17.312 0 0 0 .16 14.954C.018 15.916 0 16.2 0 17.505s.018 1.584.159 2.547c.952 6.574 5.63 12.093 11.968 14.139a19.09 19.09 0 0 0 3.698.77c.53.056 2.82.056 3.348 0 2.354-.263 4.342-.844 6.308-1.847.302-.153.359-.193.318-.227a379.254 379.254 0 0 1-2.853-3.823l-2.797-3.777-3.503-5.19a456.138 456.138 0 0 0-3.532-5.188c-.012 0-.027 2.306-.034 5.12-.012 4.927-.012 5.127-.074 5.24a.626.626 0 0 1-.302.315c-.108.051-.206.062-.723.062h-.592l-.154-.096a.65.65 0 0 1-.227-.25l-.075-.155.006-6.859.012-6.859.108-.136a.823.823 0 0 1 .25-.205c.144-.069.2-.08.792-.08.695 0 .81.028.992.228 1.42 2.11 2.826 4.23 4.221 6.357a15019.2 15019.2 0 0 0 6.904 10.46l2.775 4.198.136-.09a17.88 17.88 0 0 0 3.593-3.156 17.43 17.43 0 0 0 4.12-8.944c.142-.962.16-1.248.16-2.551 0-1.305-.018-1.584-.16-2.547C33.89 8.387 29.214 2.868 22.875.821a18.575 18.575 0 0 0-3.64-.762c-.332-.034-2.594-.074-2.878-.045l-.001-.002Zm7.162 10.584a.68.68 0 0 1 .346.398c.03.092.035 1.994.03 6.278l-.012 6.152-1.082-1.663-1.088-1.663v-4.466c0-2.895.012-4.518.027-4.598a.733.733 0 0 1 .343-.432c.135-.07.188-.075.73-.075.506 0 .592.006.706.07Z" fill="#D6BD96"/></g><defs><clipPath id="a"><path fill="#fff" d="M0 0h35v35H0z"/></clipPath></defs></svg>