<svg width="46" height="50" fill="none" xmlns="http://www.w3.org/2000/svg"><path fill-rule="evenodd" clip-rule="evenodd" d="M22.681 0c-.716 0-1.42.184-2.046.533h.002C14.43 4.042 8.22 7.548 2.01 11.053A3.854 3.854 0 0 0 0 14.408v21.188a3.883 3.883 0 0 0 2.087 3.385c.655.358 1.303.728 1.951 1.099 1.116.638 2.232 1.277 3.382 1.85a7.661 7.661 0 0 0 6.845.188 5.318 5.318 0 0 0 2.488-4.805c.008-4.494.006-8.988.005-13.483v-7.492a.551.551 0 0 0-.518-.635c-.794-.012-1.586-.007-2.38-.002h-.002a.524.524 0 0 0-.57.535c-.006 3.676-.005 7.354-.004 11.033.001 3.27.002 6.541-.002 9.812a2.35 2.35 0 0 1-1.522 2.207 3.83 3.83 0 0 1-3.1-.415 1316.85 1316.85 0 0 1-4.957-2.8.592.592 0 0 1-.338-.587V14.518a.648.648 0 0 1 .392-.65c6.186-3.491 12.372-6.98 18.56-10.467a.645.645 0 0 1 .73 0c6.187 3.49 12.375 6.978 18.565 10.465a.655.655 0 0 1 .39.652c.004 6.99.003 13.98-.002 20.968a.605.605 0 0 1-.333.595 15348.824 15348.824 0 0 0-18.41 10.393c-.264.154-.562.328-.857.157-.929-.526-1.85-1.063-2.77-1.6-.665-.387-1.33-.775-1.997-1.158a.514.514 0 0 0-.575-.035 13.055 13.055 0 0 1-2.5 1.13c-.268.082-.542.166-.716.4.304.33.671.595 1.08.778l5.59 3.23a4.075 4.075 0 0 0 4.138.115l18.63-10.51a3.89 3.89 0 0 0 2.09-3.385V14.408a3.85 3.85 0 0 0-1.945-3.312L24.728.533A4.192 4.192 0 0 0 22.68 0Zm11.416 16.44a14.7 14.7 0 0 0-8.045-1.232 8.765 8.765 0 0 0-5.44 2.188 5.437 5.437 0 0 0-1.084 5.655 4.826 4.826 0 0 0 3.045 2.657c1.668.601 3.418.787 5.17.973 1.6.17 3.202.34 4.742.827.627.213 1.358.538 1.553 1.238a2.475 2.475 0 0 1-.675 2.365 7.425 7.425 0 0 1-4.485 1.097 10.15 10.15 0 0 1-5.468-.995 3.599 3.599 0 0 1-1.34-2.525.554.554 0 0 0-.565-.55c-.793-.01-1.582-.007-2.375 0a.527.527 0 0 0-.578.465 5.846 5.846 0 0 0 1.883 4.61 9.98 9.98 0 0 0 5.57 2.098c2.112.244 4.25.153 6.332-.27a7.815 7.815 0 0 0 4.195-2.263 5.845 5.845 0 0 0 .99-5.575 4.675 4.675 0 0 0-3.075-2.737c-1.8-.632-3.682-.881-5.566-1.13-1.465-.195-2.93-.389-4.358-.763l-.073-.022c-.552-.172-1.198-.373-1.44-.948a2.138 2.138 0 0 1 .71-2.387 6.395 6.395 0 0 1 3.373-.84c1.6-.15 3.215.08 4.71.675a3.59 3.59 0 0 1 1.717 2.48.607.607 0 0 0 .57.59c.56.01 1.121.008 1.683.006l.674-.001a.57.57 0 0 0 .618-.42 6.086 6.086 0 0 0-2.968-5.265Z" fill="#D6BD96"/></svg>