<svg width="285" height="285" viewBox="0 0 285 285" fill="none" xmlns="http://www.w3.org/2000/svg">
<path d="M230.883 128.094C230.21 129.722 229.068 131.113 227.604 132.092C226.14 133.071 224.418 133.593 222.656 133.594H151.406V240.469C151.406 242.831 150.468 245.096 148.798 246.766C147.127 248.437 144.862 249.375 142.5 249.375C140.138 249.375 137.873 248.437 136.202 246.766C134.532 245.096 133.594 242.831 133.594 240.469V133.594H62.3438C60.5813 133.595 58.858 133.074 57.3921 132.095C55.9262 131.117 54.7836 129.725 54.1089 128.097C53.4342 126.469 53.2578 124.677 53.6021 122.948C53.9463 121.22 54.7957 119.632 56.0426 118.386L136.199 38.2301C137.026 37.4021 138.008 36.7451 139.089 36.2969C140.171 35.8487 141.33 35.618 142.5 35.618C143.67 35.618 144.829 35.8487 145.911 36.2969C146.992 36.7451 147.974 37.4021 148.801 38.2301L228.957 118.386C230.203 119.633 231.05 121.22 231.393 122.948C231.736 124.676 231.559 126.467 230.883 128.094Z" fill="#651FFF"/>
</svg>
