<svg width="33" height="33" viewBox="0 0 33 33" fill="none" xmlns="http://www.w3.org/2000/svg">
<path d="M27.5421 13.1047L17.2296 23.4172C17.1339 23.5131 17.0201 23.5891 16.8949 23.641C16.7697 23.6929 16.6355 23.7196 16.5 23.7196C16.3645 23.7196 16.2303 23.6929 16.1051 23.641C15.9799 23.5891 15.8662 23.5131 15.7704 23.4172L5.45791 13.1047C5.26441 12.9112 5.1557 12.6487 5.1557 12.3751C5.1557 12.1014 5.26441 11.839 5.45791 11.6455C5.65142 11.452 5.91387 11.3433 6.18752 11.3433C6.46118 11.3433 6.72363 11.452 6.91713 11.6455L16.5 21.2297L26.0829 11.6455C26.1787 11.5497 26.2925 11.4737 26.4177 11.4218C26.5428 11.37 26.677 11.3433 26.8125 11.3433C26.948 11.3433 27.0822 11.37 27.2074 11.4218C27.3326 11.4737 27.4463 11.5497 27.5421 11.6455C27.6379 11.7413 27.714 11.855 27.7658 11.9802C27.8177 12.1054 27.8443 12.2396 27.8443 12.3751C27.8443 12.5106 27.8177 12.6448 27.7658 12.7699C27.714 12.8951 27.6379 13.0089 27.5421 13.1047Z" fill="#D6BD96"/>
</svg>
