<svg width="50" height="50" fill="none" xmlns="http://www.w3.org/2000/svg"><path opacity=".3" d="M10.583 16.667h6.146c.667-2.605 1.625-5.105 2.875-7.417a16.64 16.64 0 0 0-9.02 7.417ZM15.625 25c0-1.417.125-2.792.292-4.167H8.875c-.333 1.334-.542 2.73-.542 4.167 0 1.438.209 2.833.542 4.167h7.042c-.167-1.375-.292-2.75-.292-4.167Zm-5.042 8.333a16.64 16.64 0 0 0 9.021 7.417 32.605 32.605 0 0 1-2.875-7.417h-6.146ZM25 8.417a29.348 29.348 0 0 0-3.98 8.25h7.96A29.345 29.345 0 0 0 25 8.417Zm14.417 8.25a16.73 16.73 0 0 0-9.021-7.417c1.25 2.313 2.208 4.813 2.875 7.417h6.146ZM25 41.583c1.73-2.5 3.083-5.27 3.98-8.25h-7.96c.897 2.98 2.25 5.75 3.98 8.25Zm5.396-.833a16.73 16.73 0 0 0 9.02-7.417h-6.145a32.61 32.61 0 0 1-2.875 7.417Zm10.729-19.917h-7.042c.167 1.375.292 2.75.292 4.167 0 1.417-.125 2.792-.292 4.167h7.042c.333-1.334.542-2.73.542-4.167 0-1.438-.209-2.833-.542-4.167Zm-21 0c-.188 1.355-.333 2.75-.333 4.167 0 1.417.145 2.792.333 4.167h9.75c.188-1.375.333-2.75.333-4.167 0-1.417-.145-2.813-.333-4.167h-9.75Z" fill="#651FFF"/><path d="M24.98 4.167C13.48 4.167 4.166 13.5 4.166 25c0 11.5 9.312 20.833 20.812 20.833C36.5 45.833 45.833 36.5 45.833 25c0-11.5-9.333-20.833-20.854-20.833Zm14.437 12.5H33.27a32.604 32.604 0 0 0-2.875-7.417 16.73 16.73 0 0 1 9.02 7.417ZM25 8.417c1.73 2.5 3.083 5.27 3.98 8.25h-7.96c.897-2.98 2.25-5.75 3.98-8.25ZM8.875 29.167c-.333-1.334-.542-2.73-.542-4.167 0-1.438.209-2.833.542-4.167h7.042c-.167 1.375-.292 2.75-.292 4.167 0 1.417.125 2.792.292 4.167H8.875Zm1.708 4.166h6.146c.667 2.605 1.625 5.105 2.875 7.417a16.64 16.64 0 0 1-9.02-7.417Zm6.146-16.666h-6.146a16.64 16.64 0 0 1 9.021-7.417 32.608 32.608 0 0 0-2.875 7.417ZM25 41.583a29.347 29.347 0 0 1-3.98-8.25h7.96a29.349 29.349 0 0 1-3.98 8.25Zm4.875-12.416h-9.75c-.188-1.375-.333-2.75-.333-4.167 0-1.417.145-2.813.333-4.167h9.75c.188 1.355.333 2.75.333 4.167 0 1.417-.145 2.792-.333 4.167Zm.52 11.583a32.589 32.589 0 0 0 2.876-7.417h6.146a16.73 16.73 0 0 1-9.021 7.417Zm3.688-11.583c.167-1.375.292-2.75.292-4.167 0-1.417-.125-2.792-.292-4.167h7.042c.333 1.334.542 2.73.542 4.167 0 1.438-.209 2.833-.542 4.167h-7.042Z" fill="#651FFF"/></svg>