<svg width="38" height="38" fill="none" xmlns="http://www.w3.org/2000/svg"><path d="M37.413 25.677c.425-1.012-.79-1.875-1.809-1.425a16.008 16.008 0 0 1-6.46 1.35c-8.719 0-15.786-6.925-15.786-15.469a15.167 15.167 0 0 1 2.363-8.145c.591-.934-.119-2.225-1.202-1.95C6.167 2.168 0 9.61 0 18.463 0 28.977 8.698 37.5 19.43 37.5c8.124 0 15.083-4.885 17.983-11.823Z" fill="#651FFF"/><path d="M26.273.215c-1.104-.738-2.42.579-1.686 1.683L25.9 3.867a4.858 4.858 0 0 1 0 5.391l-1.313 1.97c-.735 1.103.584 2.42 1.688 1.683l1.967-1.313a4.858 4.858 0 0 1 5.391 0l1.97 1.313c1.103.737 2.42-.58 1.682-1.684l-1.312-1.969a4.859 4.859 0 0 1 0-5.391l1.312-1.969C38.023.794 36.706-.522 35.6.215l-1.967 1.312a4.858 4.858 0 0 1-5.391 0L26.272.215Z" fill="#651FFF"/></svg>