<svg width="35" height="35" fill="none" xmlns="http://www.w3.org/2000/svg"><path d="M6.563 17.5h6.562v2.188H6.562V17.5Zm0-4.375H17.5v2.188H6.562v-2.188Zm0-4.375H17.5v2.188H6.562V8.75Z" fill="#721BE3"/><path d="M15.313 28.438H4.374V6.563h26.25V17.5h2.188V6.562a2.188 2.188 0 0 0-2.188-2.187H4.375a2.188 2.188 0 0 0-2.188 2.188v21.875a2.187 2.187 0 0 0 2.188 2.187h10.938v-2.188Z" fill="#721BE3"/><path d="m24.063 27.99-2.833-2.834-1.543 1.542 4.375 4.375 8.75-8.75-1.542-1.542-7.207 7.208Z" fill="#721BE3"/></svg>