<svg width="35" height="35" fill="none" xmlns="http://www.w3.org/2000/svg"><g clip-path="url(#a)"><path d="M17.612 4.373h.194c1.798.006 10.91.072 13.366.733a4.397 4.397 0 0 1 3.095 3.106c.221.831.376 1.931.481 3.067l.022.227.048.569.018.228c.142 1.999.16 3.871.162 4.28v.165a70.194 70.194 0 0 1-.18 4.506l-.017.23-.02.227c-.11 1.251-.271 2.494-.514 3.408a4.39 4.39 0 0 1-3.095 3.106c-2.538.683-12.182.73-13.519.733h-.31c-.676 0-3.472-.013-6.403-.114l-.372-.013-.19-.008-.375-.016-.374-.015c-2.428-.107-4.74-.28-5.805-.569A4.39 4.39 0 0 1 .728 25.12c-.242-.912-.404-2.157-.514-3.408l-.017-.23-.018-.227A68.685 68.685 0 0 1 0 16.8v-.27c.004-.47.022-2.095.14-3.888l.015-.226.007-.114.017-.227.049-.569.021-.227c.105-1.136.26-2.238.482-3.067a4.39 4.39 0 0 1 3.095-3.106c1.065-.285 3.377-.46 5.806-.57l.371-.014.377-.014.188-.006.374-.015c2.082-.067 4.164-.105 6.247-.112h.423v-.002ZM14 11.395v10.54l9.093-5.268L14 11.395Z" fill="#721BE3"/></g><defs><clipPath id="a"><path fill="#fff" d="M0 0h35v35H0z"/></clipPath></defs></svg>