<svg width="35" height="35" fill="none" xmlns="http://www.w3.org/2000/svg"><g clip-path="url(#a)"><path fill-rule="evenodd" clip-rule="evenodd" d="M17.5 2.917a1.458 1.458 0 0 0-1.458 1.458v2.917h-8.75a2.917 2.917 0 0 0-2.917 2.916v18.959a2.916 2.916 0 0 0 2.917 2.916h20.416a2.917 2.917 0 0 0 2.917-2.916V10.208a2.917 2.917 0 0 0-2.917-2.916h-8.75V4.375A1.458 1.458 0 0 0 17.5 2.917Zm1.458 4.375v12.874l2.666-2.666a1.458 1.458 0 1 1 2.064 2.062l-4.9 4.899a1.823 1.823 0 0 1-2.577 0l-4.899-4.899a1.458 1.458 0 0 1 2.064-2.062l2.666 2.666V7.292h2.916Z" fill="#721BE3"/></g><defs><clipPath id="a"><path fill="#fff" d="M0 0h35v35H0z"/></clipPath></defs></svg>