<svg width="20" height="20" fill="none" xmlns="http://www.w3.org/2000/svg"><path d="M15.95 10.783A5.9 5.9 0 0 0 16 10a4.81 4.81 0 0 0-.058-.783L17.633 7.9a.408.408 0 0 0 .1-.508l-1.6-2.767a.407.407 0 0 0-.491-.183l-1.992.8a5.889 5.889 0 0 0-1.35-.784L12 2.342A.404.404 0 0 0 11.6 2H8.4c-.2 0-.358.142-.392.342l-.3 2.116c-.491.2-.941.475-1.35.784l-1.991-.8a.398.398 0 0 0-.492.183L2.283 7.392c-.1.175-.066.391.1.508l1.692 1.317A4.89 4.89 0 0 0 4 10c0 .258.017.533.058.783L2.367 12.1a.408.408 0 0 0-.1.508l1.6 2.767c.1.183.308.242.491.183l1.992-.8c.417.317.858.584 1.35.784l.3 2.116c.042.2.2.342.4.342h3.2a.39.39 0 0 0 .392-.342l.3-2.116c.491-.2.941-.467 1.35-.784l1.991.8c.184.067.392 0 .492-.183l1.6-2.767a.386.386 0 0 0-.1-.508l-1.675-1.317ZM10 13c-1.65 0-3-1.35-3-3s1.35-3 3-3 3 1.35 3 3-1.35 3-3 3Z" fill="#721BE3"/></svg>