<svg xmlns="http://www.w3.org/2000/svg" width="1000" height="1000"><g clip-path="url(#a)"><path fill="#a30bde" d="M0 0h1000v1000H0z"/><svg xmlns="http://www.w3.org/2000/svg" xmlns:xlink="http://www.w3.org/1999/xlink" xmlns:svgjs="http://svgjs.dev/svgjs" width="100" height="100" transform="matrix(7 0 0 7 150 150)"><svg width="100" height="100" viewBox="0 0 100 100" fill="none" xmlns="http://www.w3.org/2000/svg"><path d="M51.354 54.919c-11.708 11.754-10.262 23.529-4.946 32.398-12.214-5.209-23.491-25.859-7.866-44.609C55.208 26.042 52.083 18.75 52.083 12.5c5.209 9.375 13.346 28.292-.729 42.419Z" fill="#fff"/><path d="M48.95 87.5c-2.492-5.402-5.092-18.469 2.458-26.042 13.6-14.02 11.417-26.306 11.115-27.048l-.023-.035c.006 0 .015.013.023.035.56.884 11.227 18.188 3.375 37.465 4.531-2.617 6.458-6.19 7.019-7.292C70.57 83.592 58.579 86.721 48.95 87.5Zm-4.158-55.208c-6.25 3.818-20.38 13.541-21.213 26.041-.833 12.5 6.25 17.709 10.417 21.875-2.084-3.125-6.25-10.833-6.25-20.833 0-10 11.49-22.569 17.046-27.083Z" fill="#fff"/></svg></svg></g><defs><clipPath id="a"><rect width="1000" height="1000" rx="0" ry="0"/></clipPath></defs></svg>