<svg width="33" height="33" fill="none" xmlns="http://www.w3.org/2000/svg"><path d="M16.501 2.75c-7.597 0-13.75 6.153-13.75 13.75a13.742 13.742 0 0 0 9.401 13.046c.688.12.946-.293.946-.654 0-.326-.018-1.409-.018-2.56-3.454.636-4.347-.842-4.622-1.616-.156-.396-.825-1.616-1.41-1.943-.481-.257-1.169-.894-.018-.91 1.084-.018 1.857.996 2.115 1.409 1.238 2.079 3.213 1.495 4.004 1.134.121-.893.481-1.494.877-1.838-3.059-.344-6.256-1.53-6.256-6.79 0-1.496.532-2.732 1.41-3.696-.138-.344-.62-1.753.137-3.644 0 0 1.15-.36 3.781 1.411a12.76 12.76 0 0 1 3.438-.465c1.168 0 2.337.154 3.437.464 2.63-1.788 3.782-1.408 3.782-1.408.756 1.89.274 3.3.137 3.644.876.962 1.41 2.182 1.41 3.694 0 5.277-3.214 6.446-6.275 6.79.5.429.93 1.254.93 2.544 0 1.838-.018 3.316-.018 3.78 0 .361.258.79.946.653A13.772 13.772 0 0 0 30.25 16.5c0-7.597-6.153-13.75-13.75-13.75h.001Z" fill="#000"/></svg>