<svg width="12" height="12" viewBox="0 0 12 12" fill="none" xmlns="http://www.w3.org/2000/svg">
<path d="M10.44 1.5495C10.0735 1.183 9.6325 1 9.1165 1H2.873C2.357 1 1.916 1.183 1.5495 1.5495C1.183 1.916 1 2.357 1 2.873V9.1165C1 9.6325 1.183 10.0735 1.5495 10.44C1.916 10.8065 2.357 10.9895 2.873 10.9895H4.33C4.425 10.9895 4.4965 10.986 4.5445 10.9795C4.60035 10.9683 4.65075 10.9385 4.6875 10.895C4.735 10.845 4.759 10.7725 4.759 10.6775L4.7555 10.235C4.7535 9.953 4.7525 9.73 4.7525 9.565L4.6025 9.591C4.5075 9.6085 4.3875 9.616 4.242 9.614C4.09034 9.6112 3.93917 9.59598 3.79 9.5685C3.6312 9.53918 3.48171 9.47232 3.354 9.3735C3.22025 9.27232 3.12049 9.13279 3.068 8.9735L3.003 8.8235C2.94821 8.70518 2.87939 8.59388 2.798 8.492C2.705 8.3705 2.6105 8.2885 2.515 8.245L2.47 8.2125C2.43862 8.19003 2.41008 8.16384 2.385 8.1345C2.36105 8.10727 2.34133 8.0766 2.3265 8.0435C2.3135 8.013 2.3245 7.988 2.359 7.9685C2.394 7.9485 2.4565 7.939 2.548 7.939L2.678 7.959C2.7645 7.976 2.872 8.028 2.9995 8.1145C3.12853 8.20247 3.23631 8.31811 3.315 8.453C3.415 8.6305 3.535 8.766 3.676 8.8595C3.817 8.9525 3.959 8.9995 4.102 8.9995C4.245 8.9995 4.3685 8.9885 4.473 8.967C4.57406 8.9461 4.67225 8.9132 4.7655 8.869C4.8045 8.579 4.9105 8.355 5.084 8.199C4.85919 8.17696 4.63638 8.13785 4.4175 8.082C4.2039 8.02332 3.99847 7.93816 3.806 7.8285C3.60462 7.71886 3.42675 7.57072 3.2825 7.3925C3.144 7.219 3.03 6.9915 2.941 6.71C2.8525 6.428 2.808 6.1025 2.808 5.734C2.808 5.2095 2.979 4.763 3.3215 4.394C3.1615 4 3.1765 3.5575 3.367 3.068C3.493 3.0285 3.6795 3.058 3.9265 3.1555C4.1735 3.253 4.3545 3.3365 4.4695 3.4055C4.5845 3.4755 4.6765 3.534 4.746 3.5815C5.15249 3.46838 5.57257 3.41151 5.9945 3.4125C6.424 3.4125 6.84 3.469 7.2435 3.5815L7.4905 3.4255C7.68049 3.31143 7.88089 3.21566 8.089 3.1395C8.319 3.0525 8.494 3.029 8.616 3.068C8.811 3.558 8.828 4 8.6675 4.3945C9.01 4.763 9.1815 5.2095 9.1815 5.7345C9.1815 6.103 9.137 6.4295 9.048 6.713C8.9595 6.997 8.8445 7.2245 8.7035 7.396C8.55671 7.57194 8.37809 7.71866 8.177 7.8285C7.967 7.9455 7.763 8.03 7.5655 8.082C7.34664 8.13803 7.12383 8.17731 6.899 8.1995C7.124 8.3945 7.237 8.702 7.237 9.1225V10.6775C7.237 10.751 7.2475 10.8105 7.2695 10.856C7.27961 10.8779 7.29403 10.8976 7.3119 10.9138C7.32976 10.9301 7.35071 10.9425 7.3735 10.9505C7.4215 10.9675 7.4635 10.9785 7.5005 10.9825C7.5375 10.9875 7.5905 10.989 7.6595 10.989H9.1165C9.6325 10.989 10.0735 10.806 10.44 10.4395C10.806 10.0735 10.9895 9.632 10.9895 9.116V2.873C10.9895 2.357 10.8065 1.916 10.44 1.5495Z" fill="white"/>
</svg>
